<?xml version="1.0" encoding="utf-8"?>
<!-- Generator: Adobe Illustrator 18.0.0, SVG Export Plug-In . SVG Version: 6.00 Build 0)  -->
<!DOCTYPE svg PUBLIC "-//W3C//DTD SVG 1.1//EN" "http://www.w3.org/Graphics/SVG/1.1/DTD/svg11.dtd">
<svg version="1.1" id="Layer_1" xmlns="http://www.w3.org/2000/svg" xmlns:xlink="http://www.w3.org/1999/xlink" x="0px" y="0px"
	 viewBox="0 0 382 150" enable-background="new 0 0 382 150" xml:space="preserve">
<g>
	<path fill="#231916" d="M292.9,10.2c-0.2-1.2-1.3-2.1-2.6-2.1h0h0h-60.3h0h0c-1.3,0-2.4,0.9-2.6,2.1c0,0,0,11.7,0,11.8
		c0.3,1.2,1.3,2.1,2.6,2.1h0h0h18.8c1.5,0,2.7,1.2,2.7,2.7v58.1c0,1.5,1.2,2.7,2.7,2.7h12.1c1.5,0,2.7-1.2,2.7-2.7V26.8
		c0-1.5,1.2-2.7,2.7-2.7h18.7h0h0c1.3,0,2.4-0.9,2.6-2.1C292.9,22,292.9,10.2,292.9,10.2z"/>
	<path fill="#231916" d="M4.6,10.8c0-1.5,1.2-2.7,2.7-2.7h28.9c1.5,0,28.2-0.8,28.2,24.1c0,16.8-12.7,24.4-29.4,24.4H24.8
		c-1.5,0-2.7,1.2-2.7,2.7v25.6c0,1.5-1.2,2.7-2.7,2.7H7.2c-1.5,0-2.7-1.2-2.7-2.7V10.8z M22.1,39.1c0,1.5,1.2,2.7,2.7,2.7h10.8
		c6.4,0,10.5-3.8,10.5-8.7c0-6.5-3.9-9.6-10.6-9.6H24.8c-1.5,0-2.7,1.2-2.7,2.7V39.1z"/>
	<path fill="#231916" d="M218.2,85.3l-17.6-29.3c-0.7-1.5,0.1-2.3,1.4-2.6c9.5-2.8,14.6-10.9,14.6-21.2c0-26.2-31.2-24.2-32.7-24.2
		h-25.4c-1.5,0-2.7,1.2-2.7,2.7v74.1c0,1.5,1.2,2.7,2.7,2.7h12.2c1.5,0,2.7-1.2,2.7-2.7V58.5c0-1.5,0.7-2.7,2.2-2.7h4.4
		c1.5,0,2.6,1.1,3.3,2.4l14.7,27c0.7,1.3,2.5,2.4,3.9,2.4h15.1C218.4,87.6,219,86.6,218.2,85.3 M176,41.8c-1.5,0-2.7-1.2-2.7-2.7
		V25.6c0-1.5,1.2-2.7,2.7-2.7h8.8c6.4,0,12.5,2.1,12.5,9.4c0,10.3-11,9.5-11,9.5L176,41.8z"/>
	<path fill="#231916" d="M375.7,8.1h-15.1h0c-1.3,0-2.8,0.8-3.7,1.9c-0.1,0.2-15.7,23.4-15.7,23.4c0,0,0,0,0,0.1
		c-0.2,0.2-0.8,1-1.5,1c-0.8,0-1.4-0.8-1.5-1c0,0,0,0,0-0.1c0,0-15.5-23.3-15.7-23.4c-0.9-1.1-2.4-1.9-3.7-1.9h0h-15.1
		c-1.3,0-1.9,0.8-1.5,1.8c0.1,0.1,27.2,41.6,27.2,41.6c0,0,0,0,0,0c1.4,2.3,1.4,4.5,1.5,6.9c0,0,0,26.6,0,26.6
		c0,1.5,1.2,2.7,2.7,2.7h0h0h12.2h0h0c1.5,0,2.7-1.2,2.7-2.7c0,0,0-26.6,0-26.6c0-2.2,0-4.4,1.5-6.9c0,0,0,0,0,0
		c0,0,27.1-41.4,27.2-41.6C377.6,8.9,377,8.1,375.7,8.1z"/>
	<g>
		<g>
			<g>
				<path fill="#231916" d="M128.7,87.6c-1.6,0-3.3-1.2-3.9-2.6l-5-12.3c-0.6-1.4-2.3-2.6-3.9-2.6H88.4c-1.6,0-3.3,1.2-3.9,2.6
					l-5,12.3c-0.6,1.4-2.3,2.6-3.9,2.6H63.7c-1.6,0-2.3-1.2-1.7-2.6l31.4-73.7c0.6-1.4,2.4-2.6,3.9-2.6h10.2c1.6,0,3.3,1.2,3.9,2.6
					L142.8,85c0.6,1.4-0.2,2.6-1.7,2.6H128.7z M103.2,32c-0.6-1.4-1.6-1.4-2.1,0l-8.3,20.2c-0.6,1.4,0.2,2.6,1.8,2.6h15.2
					c1.6,0,2.4-1.2,1.8-2.6L103.2,32z"/>
			</g>
		</g>
	</g>
</g>
<g>
	<path fill="#231916" d="M128.4,123.7L128.4,123.7l0-9.4c0-2-1.4-2.3-2.2-2.3h-0.5v-0.7c1.2,0,2.3,0.1,3.5,0.1c1,0,2-0.1,3.1-0.1
		v0.7h-0.4c-1,0-2.2,0.2-2.2,3.2v11.3c0,0.9,0,1.7,0.1,2.5h-0.9l-12.8-14.3V125c0,2.2,0.4,2.9,2.3,2.9h0.4v0.7
		c-1.1,0-2.1-0.1-3.2-0.1c-1.1,0-2.3,0.1-3.4,0.1v-0.7h0.3c1.7,0,2.2-1.2,2.2-3.2v-10.5c0-1.4-1.1-2.2-2.3-2.2h-0.3v-0.7
		c0.9,0,1.9,0.1,2.9,0.1c0.7,0,1.5-0.1,2.2-0.1L128.4,123.7z"/>
	<path fill="#231916" d="M136.7,127.9h0.3c0.9,0,1.8-0.1,1.8-1.4v-13c0-1.3-0.9-1.4-1.8-1.4h-0.3v-0.7c1.5,0,4.1,0.1,6.2,0.1
		c2.1,0,4.7-0.1,6.4-0.1c0,1.1,0,2.7,0,3.8l-0.7,0.2c-0.1-1.6-0.4-2.9-3-2.9H142v6.5h3c1.5,0,1.8-0.8,2-2.2h0.7c0,1-0.1,1.9-0.1,2.9
		c0,0.9,0,1.9,0.1,2.8l-0.7,0.2c-0.1-1.5-0.2-2.5-1.9-2.5h-3v5.8c0,1.6,1.4,1.6,3,1.6c3,0,4.3-0.2,5.1-3l0.7,0.2
		c-0.3,1.3-0.6,2.6-0.8,4c-1.6,0-4.5-0.1-6.7-0.1c-2.2,0-5.2,0.1-6.6,0.1V127.9z"/>
	<path fill="#231916" d="M166.2,121.2l-3.3,7.8h-0.8l-6.3-14.8c-0.5-1.2-0.8-2.2-2.2-2.2h-0.4v-0.7c0.9,0,2.4,0.1,3.6,0.1
		c1,0,2.3-0.1,3.1-0.1v0.7h-0.2c-0.6,0-1.1,0.1-1.1,0.6c0,0.3,0.2,1.1,0.8,2.6l4.1,9.6l2-4.9l-3.1-7.2c-0.2-0.6-0.9-0.7-1.5-0.7
		v-0.7c1.2,0,2.3,0.1,3.5,0.1c0.9,0,1.8-0.1,2.7-0.1c0.8,0,1.6,0.1,2.4,0.1c0.7,0,1.5-0.1,2.2-0.1v0.7h-0.3c-1.2,0-1.5,0.5-2.2,1.9
		l-1.5,3.4l3.1,7.2l3.8-10.4c0.1-0.4,0.4-1,0.4-1.4c0-0.5-0.4-0.7-1.5-0.7h-0.3v-0.7c0.8,0,1.6,0.1,2.5,0.1c0.7,0,1.5-0.1,2.2-0.1
		v0.7h-0.3c-0.7,0-1.2,0.8-1.5,1.6l-5.9,15.4h-0.9L166.2,121.2z M168.3,113.8c0.2-0.5,0.3-0.8,0.3-1c0-0.6-0.6-0.7-1.4-0.7
		c-0.7,0-1.2,0.1-1.2,0.6c0,0.4,0.2,0.7,0.4,1.2l0.9,2.2h0.1L168.3,113.8z"/>
	<path fill="#231916" d="M197.9,120.5l-5-6.8c-0.7-1-1.2-1.7-2.4-1.7h-0.2v-0.7c1.3,0,2.6,0.1,3.9,0.1c1.3,0,2.5-0.1,3.7-0.1v0.7
		h-0.3c-0.7,0-1.3,0.2-1.3,0.6c0,0.3,0.3,0.6,0.4,0.8l3.8,5.3l3.1-4.5c0.4-0.7,0.8-1.1,0.8-1.6c0-0.5-1.1-0.6-1.4-0.6h-0.4v-0.7
		c0.9,0,1.9,0.1,2.8,0.1c0.8,0,1.6-0.1,2.4-0.1v0.7c-0.8,0-1.5,0.6-1.9,1.1l-4.6,6.5v5.9c0,2.1,0.7,2.2,2.1,2.2h0.5v0.7
		c-1.5,0-3-0.1-4.1-0.1c-1.2,0-2.7,0.1-4.2,0.1v-0.7h0.5c1.5,0,2.1-0.4,2.1-2V120.5z"/>
	<path fill="#231916" d="M219.5,110.9c5.3,0,9.5,3.3,9.5,8.6c0,5.7-4.1,9.5-9.4,9.5c-5.3,0-9.3-3.6-9.3-8.9
		C210.4,114.9,214.4,110.9,219.5,110.9z M219.9,127.9c4.8,0,5.7-4.3,5.7-7.9c0-3.6-2-8-6.1-8c-4.4,0-5.6,3.9-5.6,7.2
		C213.8,123.7,215.9,127.9,219.9,127.9z"/>
	<path fill="#231916" d="M235,113.9c0-1.8-1-1.9-1.8-1.9h-0.4v-0.7c0.8,0,2.3,0.1,3.9,0.1c1.5,0,2.7-0.1,4-0.1
		c3.1,0,5.9,0.8,5.9,4.4c0,2.2-1.5,3.6-3.5,4.4l4.3,6.4c0.7,1,1.2,1.3,2.4,1.5v0.7c-0.8,0-1.6-0.1-2.4-0.1c-0.8,0-1.6,0.1-2.3,0.1
		c-1.9-2.5-3.6-5.2-5.2-8.1h-1.6v5.3c0,1.9,0.9,2,2,2h0.4v0.7c-1.4,0-2.9-0.1-4.3-0.1c-1.2,0-2.4,0.1-3.6,0.1v-0.7h0.4
		c0.9,0,1.8-0.4,1.8-1.3V113.9z M238.1,119.7h1.2c2.5,0,3.8-0.9,3.8-3.9c0-2.2-1.4-3.6-3.6-3.6c-0.7,0-1.1,0.1-1.4,0.1V119.7z"/>
	<path fill="#231916" d="M252.6,127.9h0.3c0.9,0,1.8-0.1,1.8-1.4v-13c0-1.3-0.9-1.4-1.8-1.4h-0.3v-0.7c1,0,2.5,0.1,3.8,0.1
		c1.3,0,2.9-0.1,4-0.1v0.7H260c-0.7,0-2,0-2,1.4v13c0,1.4,1.3,1.4,2,1.4h0.3v0.7c-1,0-2.6-0.1-4-0.1c-1.3,0-2.8,0.1-3.8,0.1V127.9z
		 M262.7,111.3c1.1,0,2.1,0.1,3.2,0.1c1.1,0,2.2-0.1,3.3-0.1v0.7h-0.3c-1.6,0-3,1.1-4,2.2l-3.9,4.3l6.4,8c0.5,0.7,1.3,1.4,2.3,1.4
		v0.7c-0.8,0-1.7,0-2.5,0c-0.8,0-1.6,0-2.4,0c-0.2-0.5-0.9-1.5-1.3-1.9l-5.4-6.7l5.2-5.8c0.3-0.3,1.1-1.2,1.1-1.7
		c0-0.5-1.1-0.5-1.4-0.5h-0.3V111.3z"/>
</g>
</svg>
