<?xml version="1.0" encoding="UTF-8" standalone="no"?>
<svg width="943px" height="280px" viewBox="0 0 943 280" version="1.1" xmlns="http://www.w3.org/2000/svg" xmlns:xlink="http://www.w3.org/1999/xlink" xmlns:sketch="http://www.bohemiancoding.com/sketch/ns">
    <!-- Generator: Sketch 3.0.4 (8053) - http://www.bohemiancoding.com/sketch -->
    <title>Logo</title>
    <desc>Created with Sketch.</desc>
    <defs></defs>
    <g id="Page-1" stroke="none" stroke-width="1" fill="none" fill-rule="evenodd" sketch:type="MSPage">
        <g id="layout-A" sketch:type="MSArtboardGroup" transform="translate(-41.000000, -267.000000)" fill="#1A1918">
            <g id="Logo" sketch:type="MSLayerGroup" transform="translate(42.000000, 268.000000)">
                <g id="Group" sketch:type="MSShapeGroup">
                    <path d="M728.149812,5.09674986 C727.518235,2.00783347 724.769613,-0.327811983 721.513204,-0.327811983 L569.002593,-0.327811983 C565.743657,-0.327811983 562.997562,2.00783347 562.360932,5.09674986 C562.35588,5.14224945 562.35588,34.767536 562.360932,34.8130355 C562.997562,37.8994242 565.743657,40.2375974 569.002593,40.2375974 L616.514843,40.2375974 C620.246198,40.2375974 623.290398,43.2987085 623.290398,47.0271468 L623.290398,193.955424 C623.290398,197.681334 626.344703,200.73739 630.076058,200.73739 L660.530686,200.73739 C664.262041,200.73739 667.318872,197.681334 667.318872,193.955424 L667.318872,47.0271468 C667.318872,43.2987085 670.363072,40.2375974 674.096953,40.2375974 L721.513204,40.2375974 C724.769613,40.2375974 727.518235,37.8994242 728.149812,34.8130355 C728.159917,34.767536 728.159917,5.14224945 728.149812,5.09674986" id="Fill-1"></path>
                    <path d="M-0.265262207,6.54768113 C-0.265262207,2.8116595 2.78651633,-0.23681281 6.51281877,-0.23681281 L79.4750836,-0.23681281 C83.2013861,-0.23681281 150.608302,-2.21351708 150.608302,60.768022 C150.608302,103.20397 118.557049,122.344129 76.3096213,122.344129 L50.7535023,122.344129 C47.0271999,122.344129 43.9779477,125.39513 43.9779477,129.123568 L43.9779477,193.877063 C43.9779477,197.597918 40.9261691,200.656502 37.1998667,200.656502 L6.51281877,200.656502 C2.78651633,200.656502 -0.265262207,197.597918 -0.265262207,193.877063 L-0.265262207,6.54768113 L-0.265262207,6.54768113 Z M43.9779477,78.1058924 C43.9779477,81.8343307 47.0271999,84.892914 50.7535023,84.892914 L78.0275099,84.892914 C94.1099786,84.892914 104.662362,75.2823902 104.662362,62.974752 C104.662362,46.458402 94.9082915,38.7816106 77.8910893,38.7816106 L50.7535023,38.7816106 C47.0271999,38.7816106 43.9779477,41.8300829 43.9779477,45.561049 L43.9779477,78.1058924 L43.9779477,78.1058924 Z" id="Fill-2"></path>
                    <path d="M539.540803,194.918498 L495.007068,120.923531 C493.162864,117.023206 495.34812,115.218389 498.533793,114.270481 C522.634759,107.152323 535.372397,86.6320094 535.372397,60.7932996 C535.372397,-5.33529428 456.574364,-0.259562603 452.843009,-0.259562603 L388.669765,-0.259562603 C384.93841,-0.259562603 381.889158,2.81671501 381.889158,6.55020888 L381.889158,193.94784 C381.889158,197.681334 384.93841,200.73739 388.669765,200.73739 L419.366918,200.73739 C423.093221,200.73739 426.144999,197.681334 426.144999,193.94784 L426.144999,127.189835 C426.144999,123.456342 427.903309,120.400286 431.634664,120.400286 L442.717571,120.400286 C446.451453,120.400286 449.402179,123.112567 451.137752,126.416342 L488.211303,194.716278 C489.939297,198.025109 494.408334,200.73739 498.137162,200.73739 L536.256605,200.73739 C539.982907,200.73739 541.465849,198.11358 539.540803,194.918498 M432.928133,84.8979696 C429.196778,84.8979696 426.144999,81.9152189 426.144999,78.1842528 L426.144999,44.0191186 C426.144999,40.2856247 429.196778,37.2320969 432.928133,37.2320969 L455.07879,37.2320969 C471.257259,37.2320969 486.776361,42.6237979 486.776361,60.9222151 C486.776361,86.8493963 459.029934,84.892914 459.029934,84.892914 L432.928133,84.8979696" id="Fill-3"></path>
                    <path d="M937.424009,-0.327811983 L899.365198,-0.327811983 C896.103736,-0.327811983 892.200592,1.70450289 890.048179,4.39403402 C889.73997,4.77825275 850.511479,63.6016352 850.511479,63.6016352 C850.478637,63.6521903 850.448321,63.6901066 850.415479,63.738134 C850.021375,64.2866567 848.498012,66.1976394 846.575493,66.3240271 C844.650447,66.1976394 843.132137,64.2866567 842.735506,63.738134 C842.700138,63.6901066 842.672349,63.6521903 842.639507,63.6016352 C842.639507,63.6016352 803.413542,4.77825275 803.102806,4.39403402 C800.950393,1.70450289 797.049775,-0.327811983 793.785787,-0.327811983 L755.72445,-0.327811983 C752.457935,-0.327811983 750.992677,1.631198 752.048674,4.21203567 C752.197726,4.58361563 820.716217,109.295859 820.716217,109.295859 C820.723796,109.311026 820.731375,109.323664 820.74148,109.333775 C824.235362,115.198167 824.374309,120.751644 824.432414,126.684285 L824.432414,193.955424 C824.432414,197.681334 827.491772,200.73739 831.215548,200.73739 L861.935438,200.73739 C865.659214,200.73739 868.721098,197.681334 868.721098,193.955424 L868.721098,126.684285 C868.77415,121.024641 868.673098,115.607663 872.409505,109.333775 C872.417084,109.323664 872.42719,109.311026 872.434768,109.295859 C872.434768,109.295859 940.95326,4.58361563 941.102312,4.21203567 C942.155782,1.631198 940.690524,-0.327811983 937.424009,-0.327811983" id="Fill-4"></path>
                    <path d="M313.413614,200.638807 C309.477628,200.638807 305.038907,197.653529 303.550912,194.003451 L290.848642,162.826123 C289.363174,159.178573 284.924453,156.190767 280.98594,156.190767 L211.555452,156.190767 C207.61694,156.190767 203.178219,159.178573 201.692751,162.826123 L188.990481,194.003451 C187.502486,197.653529 183.063765,200.638807 179.125253,200.638807 L149.024308,200.638807 C145.085796,200.638807 143.125382,197.673751 144.668955,194.046423 L223.941934,7.64219897 C225.485508,4.0148708 229.969702,1.04981439 233.908214,1.04981439 L259.764964,1.04981439 C263.703476,1.04981439 268.187671,4.0148708 269.731244,7.64219897 L349.004223,194.046423 C350.547796,197.673751 348.587382,200.638807 344.64887,200.638807 L313.413614,200.638807 L313.413614,200.638807 Z M248.985213,60.0526674 C247.489639,56.407645 245.046701,56.407645 243.553654,60.0526674 L222.673728,111.057704 C221.178155,114.702727 223.17899,117.688005 227.117502,117.688005 L265.421365,117.688005 C269.362403,117.688005 271.363238,114.702727 269.867665,111.057704 L248.985213,60.0526674 L248.985213,60.0526674 Z" id="Fill-5"></path>
                </g>
                <g id="Group" transform="translate(346.476987, 249.100000)" sketch:type="MSShapeGroup">
                    <path d="M25.7910123,20.5697001 L25.8696085,20.4902564 L25.8696085,5.66804378 C25.8696085,2.42673988 23.6394411,1.95206364 22.4663926,1.95206364 L21.6057641,1.95206364 L21.6057641,0.766366071 C23.4449155,0.766366071 25.2428037,0.923267424 27.081955,0.923267424 C28.6853177,0.923267424 30.2886804,0.766366071 31.8920431,0.766366071 L31.8920431,1.95206364 L31.3065013,1.95206364 C29.6618756,1.95206364 27.8246892,2.26785244 27.8246892,6.97290693 L27.8246892,24.9569797 C27.8246892,26.3412866 27.8639873,27.7255935 28.058513,28.9510129 L26.5730446,28.9510129 L6.43276589,6.25989951 L6.43276589,22.5458627 C6.43276589,25.9857759 7.09690386,27.1714735 10.1091036,27.1714735 L10.7732416,27.1714735 L10.7732416,28.357171 C9.09128267,28.357171 7.41128869,28.1982836 5.72932981,28.1982836 C3.97073962,28.1982836 2.17088642,28.357171 0.410331325,28.357171 L0.410331325,27.1714735 L0.956574982,27.1714735 C3.65635478,27.1714735 4.47768517,25.3124904 4.47768517,22.1506302 L4.47768517,5.50915633 C4.47768517,3.29664865 2.67783197,1.95206364 0.919241783,1.95206364 L0.410331325,1.95206364 L0.410331325,0.766366071 C1.89776459,0.766366071 3.42253106,0.923267424 4.90799942,0.923267424 C6.08104785,0.923267424 7.21479817,0.766366071 8.3898115,0.766366071 L25.7910123,20.5697001" id="Fill-6"></path>
                    <path d="M38.7633167,27.1714735 L39.3095604,27.1714735 C40.7183974,27.1714735 42.2038658,26.9748503 42.2038658,24.9192439 L42.2038658,4.20627927 C42.2038658,2.15067294 40.7183974,1.95206364 39.3095604,1.95206364 L38.7633167,1.95206364 L38.7633167,0.766366071 C41.1467468,0.766366071 45.2141006,0.923267424 48.5013871,0.923267424 C51.7847437,0.923267424 55.8520976,0.766366071 58.5106144,0.766366071 C58.4339831,2.46447565 58.4732812,5.07420195 58.5892106,6.81401948 L57.4161621,7.12980828 C57.2216365,4.56377603 56.7520242,2.5061836 52.6453722,2.5061836 L47.2104443,2.5061836 L47.2104443,12.8596868 L51.8633399,12.8596868 C54.2094368,12.8596868 54.7183472,11.5170879 54.952171,9.38402392 L56.1252194,9.38402392 C56.0485881,10.9252321 56.00929,12.4664404 56.00929,14.0076486 C56.00929,15.511121 56.0485881,17.0106213 56.1252194,18.5140938 L54.952171,18.7524249 C54.7183472,16.3790437 54.6004529,14.8378355 51.902638,14.8378355 L47.2104443,14.8378355 L47.2104443,24.0473491 C47.2104443,26.6193396 49.477945,26.6193396 51.9792693,26.6193396 C56.673428,26.6193396 58.746403,26.3015647 59.9194514,21.7931334 L61.0139036,22.0711865 C60.5069581,24.1685008 60.0373457,26.2618429 59.6856277,28.357171 C57.1823384,28.357171 52.6846703,28.1982836 49.165525,28.1982836 C45.6463798,28.1982836 40.9915192,28.357171 38.7633167,28.357171 L38.7633167,27.1714735" id="Fill-7"></path>
                    <path d="M85.2117117,16.577653 L80.0499056,28.9510129 L78.7216297,28.9510129 L68.865665,5.47142056 C68.0836327,3.61243745 67.5747222,1.95206364 65.4624491,1.95206364 L64.8769073,1.95206364 L64.8769073,0.766366071 C66.3643406,0.766366071 68.6318412,0.923267424 70.5083258,0.923267424 C72.1509865,0.923267424 74.1846635,0.766366071 75.4363081,0.766366071 L75.4363081,1.95206364 L75.0826252,1.95206364 C74.1846635,1.95206364 73.4006663,2.11095108 73.4006663,2.86169426 C73.4006663,3.37609237 73.7543492,4.56377603 74.7309071,6.93318506 L81.1443578,22.1506302 L84.31375,14.442603 L79.4231008,3.02058171 C79.0320847,2.11095108 78.0555268,1.95206364 77.0396708,1.95206364 L77.0396708,0.766366071 C78.8768572,0.766366071 80.7140436,0.923267424 82.5531949,0.923267424 C84.00133,0.923267424 85.4082022,0.766366071 86.8543724,0.766366071 C88.1060171,0.766366071 89.3576617,0.923267424 90.6093064,0.923267424 C91.7823548,0.923267424 92.9554032,0.766366071 94.1284516,0.766366071 L94.1284516,1.95206364 L93.582208,1.95206364 C91.6251624,1.95206364 91.1575149,2.70280682 90.1789921,4.95702246 L87.8702285,10.3711122 L92.6822814,21.8348414 L98.7047159,5.23308939 C98.9385397,4.56377603 99.2902577,3.57470168 99.2902577,3.06030357 C99.2902577,2.18840871 98.5868216,1.95206364 96.9441608,1.95206364 L96.4745485,1.95206364 L96.4745485,0.766366071 C97.7654912,0.766366071 99.056434,0.923267424 100.345412,0.923267424 C101.520425,0.923267424 102.654175,0.766366071 103.827224,0.766366071 L103.827224,1.95206364 L103.357612,1.95206364 C102.182598,1.95206364 101.520425,3.29664865 101.050813,4.52206807 L91.8216529,28.9510129 L90.4521139,28.9510129 L85.2117117,16.577653 L85.2117117,16.577653 Z M88.418437,4.79813501 C88.6935237,4.04739183 88.9273475,3.53299372 88.9273475,3.13974729 C88.9273475,2.15067294 88.0274209,1.95206364 86.738443,1.95206364 C85.681324,1.95206364 84.8206955,2.15067294 84.8206955,2.94113799 C84.8206955,3.53299372 85.1331155,4.0851276 85.4455354,4.83785687 L86.9329687,8.3572138 L87.0115649,8.3572138 L88.418437,4.79813501 L88.418437,4.79813501 Z" id="Fill-8"></path>
                    <path d="M135.016165,15.4713992 L127.193877,4.64123366 C126.022793,2.98085985 125.278094,1.95206364 123.440908,1.95206364 L123.051857,1.95206364 L123.051857,0.766366071 C125.162165,0.766366071 127.077948,0.923267424 129.190221,0.923267424 C131.221933,0.923267424 133.098417,0.766366071 134.976867,0.766366071 L134.976867,1.95206364 L134.469921,1.95206364 C133.412802,1.95206364 132.438209,2.23011667 132.438209,2.86169426 C132.438209,3.29664865 132.905857,3.81104675 133.141645,4.16457132 L139.046185,12.5458841 L143.893607,5.47142056 C144.599008,4.32345877 145.107918,3.6541454 145.107918,2.90141613 C145.107918,2.07122922 143.422029,1.95206364 142.875786,1.95206364 L142.17235,1.95206364 L142.17235,0.766366071 C143.659783,0.766366071 145.145251,0.923267424 146.63072,0.923267424 C147.884329,0.923267424 149.134009,0.766366071 150.346355,0.766366071 L150.346355,1.95206364 C149.016115,1.95206364 147.921662,2.90141613 147.296823,3.77132489 L140.020778,14.166536 L140.020778,23.6143808 C140.020778,26.9748503 141.197757,27.1714735 143.268767,27.1714735 L144.009536,27.1714735 L144.009536,28.357171 C141.704702,28.357171 139.35664,28.1982836 137.637348,28.1982836 C135.682268,28.1982836 133.334206,28.357171 131.029372,28.357171 L131.029372,27.1714735 L131.770141,27.1714735 C134.07694,27.1714735 135.016165,26.5398959 135.016165,23.9281835 L135.016165,15.4713992" id="Fill-9"></path>
                    <path d="M169.02671,0.174510335 C177.359873,0.174510335 184.007147,5.39197684 184.007147,13.8110254 C184.007147,22.9033595 177.554398,28.9510129 169.225165,28.9510129 C160.933265,28.9510129 154.59841,23.2588701 154.59841,14.7603779 C154.59841,6.53795254 160.893967,0.174510335 169.02671,0.174510335 L169.02671,0.174510335 Z M169.614216,27.2111953 C177.20268,27.2111953 178.530956,20.4505345 178.530956,14.6809341 C178.530956,8.90934767 175.442125,1.91234177 168.948113,1.91234177 C162.108278,1.91234177 160.072636,8.07916077 160.072636,13.376071 C160.072636,20.4505345 163.281327,27.2111953 169.614216,27.2111953 L169.614216,27.2111953 Z" id="Fill-10"></path>
                    <path d="M193.263816,4.95702246 C193.263816,2.07122922 191.701716,1.95206364 190.487405,1.95206364 L189.783969,1.95206364 L189.783969,0.766366071 C191.037578,0.766366071 193.460306,0.923267424 195.847666,0.923267424 C198.191798,0.923267424 200.068283,0.766366071 202.141258,0.766366071 C207.06924,0.766366071 211.449014,2.11095108 211.449014,7.72365011 C211.449014,11.2807428 209.102917,13.4555147 206.016051,14.6809341 L212.700658,24.8000784 C213.797075,26.4604522 214.577143,26.9331423 216.49489,27.1714735 L216.49489,28.357171 C215.201983,28.357171 213.952303,28.1982836 212.663325,28.1982836 C211.449014,28.1982836 210.197369,28.357171 208.986987,28.357171 C205.974788,24.365124 203.392902,20.09701 200.85228,15.5508429 L198.270394,15.5508429 L198.270394,24.0096133 C198.270394,27.054294 199.679231,27.1714735 201.47712,27.1714735 L202.182521,27.1714735 L202.182521,28.357171 C199.952353,28.357171 197.682888,28.1982836 195.454685,28.1982836 C193.580165,28.1982836 191.741014,28.357171 189.783969,28.357171 L189.783969,27.1714735 L190.487405,27.1714735 C191.93554,27.1714735 193.263816,26.4981879 193.263816,25.0364234 L193.263816,4.95702246 L193.263816,4.95702246 Z M198.270394,14.1268142 L200.186177,14.1268142 C204.096338,14.1268142 206.208611,12.6253278 206.208611,7.95999518 C206.208611,4.44262435 203.982374,2.18840871 200.500562,2.18840871 C199.325548,2.18840871 198.818603,2.30956039 198.270394,2.34729616 L198.270394,14.1268142 L198.270394,14.1268142 Z" id="Fill-11"></path>
                    <path d="M221.020067,27.1714735 L221.568276,27.1714735 C222.977113,27.1714735 224.462581,26.9748503 224.462581,24.9192439 L224.462581,4.20627927 C224.462581,2.15067294 222.977113,1.95206364 221.568276,1.95206364 L221.020067,1.95206364 L221.020067,0.766366071 C222.586097,0.766366071 224.932193,0.923267424 226.924607,0.923267424 C229.03688,0.923267424 231.542135,0.766366071 233.143532,0.766366071 L233.143532,1.95206364 L232.675885,1.95206364 C231.502837,1.95206364 229.46916,1.9917855 229.46916,4.20627927 L229.46916,24.9192439 C229.46916,27.1317516 231.502837,27.1714735 232.675885,27.1714735 L233.143532,27.1714735 L233.143532,28.357171 C231.542135,28.357171 229.03688,28.1982836 226.924607,28.1982836 C224.932193,28.1982836 222.586097,28.357171 221.020067,28.357171 L221.020067,27.1714735 L221.020067,27.1714735 Z M236.900431,0.766366071 C238.580425,0.766366071 240.223086,0.923267424 241.905045,0.923267424 C243.6656,0.923267424 245.384892,0.766366071 247.145447,0.766366071 L247.145447,1.95206364 L246.638502,1.95206364 C244.054651,1.95206364 241.942378,3.73160303 240.339015,5.47142056 L234.161353,12.2300953 L244.211844,24.9986877 C245.033174,26.1823991 246.284819,27.1714735 247.772252,27.1714735 L247.772252,28.357171 C246.479344,28.357171 245.11177,28.2777273 243.781529,28.2777273 C242.53185,28.2777273 241.317538,28.357171 240.065894,28.357171 C239.714176,27.6064279 238.580425,26.0235117 238.034182,25.3919341 L229.587054,14.720656 L237.798393,5.47142056 C238.307303,4.95702246 239.517685,3.61243745 239.517685,2.78225054 C239.517685,1.9917855 237.835726,1.95206364 237.328781,1.95206364 L236.900431,1.95206364 L236.900431,0.766366071 L236.900431,0.766366071 Z" id="Fill-12"></path>
                </g>
            </g>
        </g>
    </g>
</svg>