<?xml version="1.0" encoding="UTF-8" standalone="no"?>
<svg width="1024px" height="768px" viewBox="0 0 1024 768" version="1.1" xmlns="http://www.w3.org/2000/svg" xmlns:xlink="http://www.w3.org/1999/xlink" xmlns:sketch="http://www.bohemiancoding.com/sketch/ns">
    <!-- Generator: Sketch 3.0.4 (8053) - http://www.bohemiancoding.com/sketch -->
    <title>party_logo_mask</title>
    <desc>Created with Sketch.</desc>
    <defs></defs>
    <g id="Page-1" stroke="none" stroke-width="1" fill="none" fill-rule="evenodd" sketch:type="MSPage">
        <g id="logomasksvg" sketch:type="MSArtboardGroup" fill="#FFFFFF">
            <path d="M0,0 L0,768 L1024,768 L1024,0 L0,0 Z M770.149812,250.09675 C769.518235,247.007833 766.769613,244.672188 763.513204,244.672188 L611.002593,244.672188 C607.743657,244.672188 604.997562,247.007833 604.360932,250.09675 C604.35588,250.142249 604.35588,279.767536 604.360932,279.813036 C604.997562,282.899424 607.743657,285.237597 611.002593,285.237597 L658.514843,285.237597 C662.246198,285.237597 665.290398,288.298708 665.290398,292.027147 L665.290398,438.955424 C665.290398,442.681334 668.344703,445.73739 672.076058,445.73739 L702.530686,445.73739 C706.262041,445.73739 709.318872,442.681334 709.318872,438.955424 L709.318872,292.027147 C709.318872,288.298708 712.363072,285.237597 716.096953,285.237597 L763.513204,285.237597 C766.769613,285.237597 769.518235,282.899424 770.149812,279.813036 C770.159917,279.767536 770.159917,250.142249 770.149812,250.09675 Z M41.7347378,251.547681 C41.7347378,247.81166 44.7865163,244.763187 48.5128188,244.763187 L121.475084,244.763187 C125.201386,244.763187 192.608302,242.786483 192.608302,305.768022 C192.608302,348.20397 160.557049,367.344129 118.309621,367.344129 L92.7535023,367.344129 C89.0271999,367.344129 85.9779477,370.39513 85.9779477,374.123568 L85.9779477,438.877063 C85.9779477,442.597918 82.9261691,445.656502 79.1998667,445.656502 L48.5128188,445.656502 C44.7865163,445.656502 41.7347378,442.597918 41.7347378,438.877063 L41.7347378,251.547681 Z M85.9779477,323.105892 C85.9779477,326.834331 89.0271999,329.892914 92.7535023,329.892914 L120.02751,329.892914 C136.109979,329.892914 146.662362,320.28239 146.662362,307.974752 C146.662362,291.458402 136.908291,283.781611 119.891089,283.781611 L92.7535023,283.781611 C89.0271999,283.781611 85.9779477,286.830083 85.9779477,290.561049 L85.9779477,323.105892 Z M581.540803,439.918498 L537.007068,365.923531 C535.162864,362.023206 537.34812,360.218389 540.533793,359.270481 C564.634759,352.152323 577.372397,331.632009 577.372397,305.7933 C577.372397,239.664706 498.574364,244.740437 494.843009,244.740437 L430.669765,244.740437 C426.93841,244.740437 423.889158,247.816715 423.889158,251.550209 L423.889158,438.94784 C423.889158,442.681334 426.93841,445.73739 430.669765,445.73739 L461.366918,445.73739 C465.093221,445.73739 468.144999,442.681334 468.144999,438.94784 L468.144999,372.189835 C468.144999,368.456342 469.903309,365.400286 473.634664,365.400286 L484.717571,365.400286 C488.451453,365.400286 491.402179,368.112567 493.137752,371.416342 L530.211303,439.716278 C531.939297,443.025109 536.408334,445.73739 540.137162,445.73739 L578.256605,445.73739 C581.982907,445.73739 583.465849,443.11358 581.540803,439.918498 Z M474.928133,329.89797 C471.196778,329.89797 468.144999,326.915219 468.144999,323.184253 L468.144999,289.019119 C468.144999,285.285625 471.196778,282.232097 474.928133,282.232097 L497.07879,282.232097 C513.257259,282.232097 528.776361,287.623798 528.776361,305.922215 C528.776361,331.849396 501.029934,329.892914 501.029934,329.892914 L474.928133,329.89797 Z M979.424009,244.672188 L941.365198,244.672188 C938.103736,244.672188 934.200592,246.704503 932.048179,249.394034 C931.73997,249.778253 892.511479,308.601635 892.511479,308.601635 C892.478637,308.65219 892.448321,308.690107 892.415479,308.738134 C892.021375,309.286657 890.498012,311.197639 888.575493,311.324027 C886.650447,311.197639 885.132137,309.286657 884.735506,308.738134 C884.700138,308.690107 884.672349,308.65219 884.639507,308.601635 C884.639507,308.601635 845.413542,249.778253 845.102806,249.394034 C842.950393,246.704503 839.049775,244.672188 835.785787,244.672188 L797.72445,244.672188 C794.457935,244.672188 792.992677,246.631198 794.048674,249.212036 C794.197726,249.583616 862.716217,354.295859 862.716217,354.295859 C862.723796,354.311026 862.731375,354.323664 862.74148,354.333775 C866.235362,360.198167 866.374309,365.751644 866.432414,371.684285 L866.432414,438.955424 C866.432414,442.681334 869.491772,445.73739 873.215548,445.73739 L903.935438,445.73739 C907.659214,445.73739 910.721098,442.681334 910.721098,438.955424 L910.721098,371.684285 C910.77415,366.024641 910.673098,360.607663 914.409505,354.333775 C914.417084,354.323664 914.42719,354.311026 914.434768,354.295859 C914.434768,354.295859 982.95326,249.583616 983.102312,249.212036 C984.155782,246.631198 982.690524,244.672188 979.424009,244.672188 Z M355.413614,445.638807 C351.477628,445.638807 347.038907,442.653529 345.550912,439.003451 L332.848642,407.826123 C331.363174,404.178573 326.924453,401.190767 322.98594,401.190767 L253.555452,401.190767 C249.61694,401.190767 245.178219,404.178573 243.692751,407.826123 L230.990481,439.003451 C229.502486,442.653529 225.063765,445.638807 221.125253,445.638807 L191.024308,445.638807 C187.085796,445.638807 185.125382,442.673751 186.668955,439.046423 L265.941934,252.642199 C267.485508,249.014871 271.969702,246.049814 275.908214,246.049814 L301.764964,246.049814 C305.703476,246.049814 310.187671,249.014871 311.731244,252.642199 L391.004223,439.046423 C392.547796,442.673751 390.587382,445.638807 386.64887,445.638807 L355.413614,445.638807 Z M285.553654,305.052667 C285.553654,305.052667 276.615036,326.887732 272.145727,337.805265 C269.655061,343.889411 264.673728,356.057704 264.673728,356.057704 C263.178155,359.702727 265.17899,362.688005 269.117502,362.688005 L307.421365,362.688005 C311.362403,362.688005 313.363238,359.702727 311.867665,356.057704 L290.985213,305.052667 C289.489639,301.407645 287.046701,301.407645 285.553654,305.052667 Z M414.268,514.6697 L414.346596,514.590256 L414.346596,499.768044 C414.346596,496.52674 412.116429,496.052064 410.94338,496.052064 L410.082752,496.052064 L410.082752,494.866366 C411.921903,494.866366 413.719791,495.023267 415.558942,495.023267 C417.162305,495.023267 418.765668,494.866366 420.369031,494.866366 L420.369031,496.052064 L419.783489,496.052064 C418.138863,496.052064 416.301677,496.367852 416.301677,501.072907 L416.301677,519.05698 C416.301677,520.441287 416.340975,521.825593 416.5355,523.051013 L415.050032,523.051013 L394.909753,500.3599 L394.909753,516.645863 C394.909753,520.085776 395.573891,521.271473 398.586091,521.271473 L399.250229,521.271473 L399.250229,522.457171 C397.56827,522.457171 395.888276,522.298284 394.206317,522.298284 C392.447727,522.298284 390.647874,522.457171 388.887319,522.457171 L388.887319,521.271473 L389.433562,521.271473 C392.133342,521.271473 392.954673,519.41249 392.954673,516.25063 L392.954673,499.609156 C392.954673,497.396649 391.154819,496.052064 389.396229,496.052064 L388.887319,496.052064 L388.887319,494.866366 C390.374752,494.866366 391.899519,495.023267 393.384987,495.023267 C394.558035,495.023267 395.691786,494.866366 396.866799,494.866366 L414.268,514.6697 Z M427.240304,521.271473 L427.786548,521.271473 C429.195385,521.271473 430.680853,521.07485 430.680853,519.019244 L430.680853,498.306279 C430.680853,496.250673 429.195385,496.052064 427.786548,496.052064 L427.240304,496.052064 L427.240304,494.866366 C429.623734,494.866366 433.691088,495.023267 436.978375,495.023267 C440.261731,495.023267 444.329085,494.866366 446.987602,494.866366 C446.910971,496.564476 446.950269,499.174202 447.066198,500.914019 L445.89315,501.229808 C445.698624,498.663776 445.229012,496.606184 441.12236,496.606184 L435.687432,496.606184 L435.687432,506.959687 L440.340327,506.959687 C442.686424,506.959687 443.195335,505.617088 443.429158,503.484024 L444.602207,503.484024 C444.525576,505.025232 444.486277,506.56644 444.486277,508.107649 C444.486277,509.611121 444.525576,511.110621 444.602207,512.614094 L443.429158,512.852425 C443.195335,510.479044 443.07744,508.937835 440.379625,508.937835 L435.687432,508.937835 L435.687432,518.147349 C435.687432,520.71934 437.954932,520.71934 440.456257,520.71934 C445.150415,520.71934 447.22339,520.401565 448.396439,515.893133 L449.490891,516.171186 C448.983946,518.268501 448.514333,520.361843 448.162615,522.457171 C445.659326,522.457171 441.161658,522.298284 437.642512,522.298284 C434.123367,522.298284 429.468507,522.457171 427.240304,522.457171 L427.240304,521.271473 Z M473.688699,510.677653 L468.526893,523.051013 L467.198617,523.051013 L457.342652,499.571421 C456.56062,497.712437 456.05171,496.052064 453.939437,496.052064 L453.353895,496.052064 L453.353895,494.866366 C454.841328,494.866366 457.108829,495.023267 458.985313,495.023267 C460.627974,495.023267 462.661651,494.866366 463.913296,494.866366 L463.913296,496.052064 L463.559613,496.052064 C462.661651,496.052064 461.877654,496.210951 461.877654,496.961694 C461.877654,497.476092 462.231337,498.663776 463.207895,501.033185 L469.621345,516.25063 L472.790737,508.542603 L467.900088,497.120582 C467.509072,496.210951 466.532514,496.052064 465.516658,496.052064 L465.516658,494.866366 C467.353845,494.866366 469.191031,495.023267 471.030182,495.023267 C472.478317,495.023267 473.88519,494.866366 475.33136,494.866366 C476.583005,494.866366 477.834649,495.023267 479.086294,495.023267 C480.259342,495.023267 481.432391,494.866366 482.605439,494.866366 L482.605439,496.052064 L482.059195,496.052064 C480.10215,496.052064 479.634502,496.802807 478.65598,499.057022 L476.347216,504.471112 L481.159269,515.934841 L487.181703,499.333089 C487.415527,498.663776 487.767245,497.674702 487.767245,497.160304 C487.767245,496.288409 487.063809,496.052064 485.421148,496.052064 L484.951536,496.052064 L484.951536,494.866366 C486.242479,494.866366 487.533421,495.023267 488.822399,495.023267 C489.997413,495.023267 491.131163,494.866366 492.304211,494.866366 L492.304211,496.052064 L491.834599,496.052064 C490.659586,496.052064 489.997413,497.396649 489.5278,498.622068 L480.29864,523.051013 L478.929101,523.051013 L473.688699,510.677653 Z M476.895424,498.898135 C477.170511,498.147392 477.404335,497.632994 477.404335,497.239747 C477.404335,496.250673 476.504408,496.052064 475.21543,496.052064 C474.158311,496.052064 473.297683,496.250673 473.297683,497.041138 C473.297683,497.632994 473.610103,498.185128 473.922523,498.937857 L475.409956,502.457214 L475.488552,502.457214 L476.895424,498.898135 Z M523.493152,509.571399 L515.670864,498.741234 C514.499781,497.08086 513.755082,496.052064 511.917895,496.052064 L511.528844,496.052064 L511.528844,494.866366 C513.639152,494.866366 515.554935,495.023267 517.667208,495.023267 C519.69892,495.023267 521.575405,494.866366 523.453854,494.866366 L523.453854,496.052064 L522.946909,496.052064 C521.88979,496.052064 520.915197,496.330117 520.915197,496.961694 C520.915197,497.396649 521.382844,497.911047 521.618633,498.264571 L527.523173,506.645884 L532.370594,499.571421 C533.075995,498.423459 533.584906,497.754145 533.584906,497.001416 C533.584906,496.171229 531.899017,496.052064 531.352773,496.052064 L530.649337,496.052064 L530.649337,494.866366 C532.13677,494.866366 533.622239,495.023267 535.107707,495.023267 C536.361317,495.023267 537.610996,494.866366 538.823343,494.866366 L538.823343,496.052064 C537.493102,496.052064 536.39865,497.001416 535.77381,497.871325 L528.497766,508.266536 L528.497766,517.714381 C528.497766,521.07485 529.674744,521.271473 531.745754,521.271473 L532.486524,521.271473 L532.486524,522.457171 C530.18169,522.457171 527.833628,522.298284 526.114336,522.298284 C524.159255,522.298284 521.811193,522.457171 519.506359,522.457171 L519.506359,521.271473 L520.247129,521.271473 C522.553928,521.271473 523.493152,520.639896 523.493152,518.028183 L523.493152,509.571399 Z M557.503697,494.27451 C565.83686,494.27451 572.484135,499.491977 572.484135,507.911025 C572.484135,517.003359 566.031386,523.051013 557.702152,523.051013 C549.410252,523.051013 543.075398,517.35887 543.075398,508.860378 C543.075398,500.637953 549.370954,494.27451 557.503697,494.27451 Z M581.740803,499.057022 C581.740803,496.171229 580.178703,496.052064 578.964392,496.052064 L578.260956,496.052064 L578.260956,494.866366 C579.514566,494.866366 581.937294,495.023267 584.324654,495.023267 C586.668785,495.023267 588.54527,494.866366 590.618245,494.866366 C595.546227,494.866366 599.926001,496.210951 599.926001,501.82365 C599.926001,505.380743 597.579904,507.555515 594.493038,508.780934 L601.177646,518.900078 C602.274063,520.560452 603.05413,521.033142 604.971878,521.271473 L604.971878,522.457171 C603.67897,522.457171 602.42929,522.298284 601.140313,522.298284 C599.926001,522.298284 598.674357,522.457171 597.463975,522.457171 C594.451775,518.465124 591.86989,514.19701 589.329267,509.650843 L586.747382,509.650843 L586.747382,518.109613 C586.747382,521.154294 588.156219,521.271473 589.954107,521.271473 L590.659508,521.271473 L590.659508,522.457171 C588.429341,522.457171 586.159875,522.298284 583.931672,522.298284 C582.057153,522.298284 580.218002,522.457171 578.260956,522.457171 L578.260956,521.271473 L578.964392,521.271473 C580.412527,521.271473 581.740803,520.598188 581.740803,519.136423 L581.740803,499.057022 Z M586.747382,508.226814 L588.663164,508.226814 C592.573326,508.226814 594.685599,506.725328 594.685599,502.059995 C594.685599,498.542624 592.459361,496.288409 588.977549,496.288409 C587.802536,496.288409 587.29559,496.40956 586.747382,496.447296 L586.747382,508.226814 Z M609.497055,521.271473 L610.045263,521.271473 C611.4541,521.271473 612.939569,521.07485 612.939569,519.019244 L612.939569,498.306279 C612.939569,496.250673 611.4541,496.052064 610.045263,496.052064 L609.497055,496.052064 L609.497055,494.866366 C611.063084,494.866366 613.409181,495.023267 615.401595,495.023267 C617.513868,495.023267 620.019122,494.866366 621.62052,494.866366 L621.62052,496.052064 L621.152872,496.052064 C619.979824,496.052064 617.946147,496.091785 617.946147,498.306279 L617.946147,519.019244 C617.946147,521.231752 619.979824,521.271473 621.152872,521.271473 L621.62052,521.271473 L621.62052,522.457171 C620.019122,522.457171 617.513868,522.298284 615.401595,522.298284 C613.409181,522.298284 611.063084,522.457171 609.497055,522.457171 L609.497055,521.271473 Z M625.377419,494.866366 C627.057413,494.866366 628.700073,495.023267 630.382032,495.023267 C632.142587,495.023267 633.86188,494.866366 635.622435,494.866366 L635.622435,496.052064 L635.115489,496.052064 C632.531639,496.052064 630.419366,497.831603 628.816003,499.571421 L622.638341,506.330095 L632.688831,519.098688 C633.510162,520.282399 634.761806,521.271473 636.249239,521.271473 L636.249239,522.457171 C634.956332,522.457171 633.588758,522.377727 632.258517,522.377727 C631.008837,522.377727 629.794526,522.457171 628.542881,522.457171 C628.191163,521.706428 627.057413,520.123512 626.511169,519.491934 L618.064041,508.820656 L626.27538,499.571421 C626.784291,499.057022 627.994672,497.712437 627.994672,496.882251 C627.994672,496.091785 626.312714,496.052064 625.805768,496.052064 L625.377419,496.052064 L625.377419,494.866366 Z M558.091204,521.311195 C565.679668,521.311195 567.007944,514.550535 567.007944,508.780934 C567.007944,503.009348 563.919113,496.012342 557.425101,496.012342 C550.585266,496.012342 548.549624,502.179161 548.549624,507.476071 C548.549624,514.550535 551.758314,521.311195 558.091204,521.311195 Z" id="party_logo_mask" sketch:type="MSShapeGroup"></path>
        </g>
    </g>
</svg>